<svg id="Capa_1" enable-background="new 0 0 512 512" height="512" viewBox="0 0 512 512" width="512" xmlns="http://www.w3.org/2000/svg"><g><g fill="#fac600"><path d="m11 267c0 47.547 13.559 91.921 37 129.493l1-.287v-260.301c-24.059 37.909-38 82.872-38 131.095z"/><path d="m397.218 466h-282.436l-.319 1c39.973 28.339 88.808 45 141.537 45s101.565-16.661 141.537-45z"/><path d="m463 135.905v260.301l1 .287c23.441-37.572 37-81.946 37-129.493 0-48.223-13.941-93.186-38-131.095z"/></g><g><path d="m464 56-6.933-1h-402.134l-6.933 1v340.493c17.272 27.684 39.904 51.677 66.463 70.507h283.074c26.558-18.829 49.191-42.823 66.463-70.507z" fill="#f3f0ff"/><path d="m96 452.539v-396.539h-48v340.493c13.118 21.026 29.323 39.925 48 56.046z" fill="#e2deff"/><g><g><path d="m449 0h-386c-8.284 0-15 6.716-15 15v41h416v-41c0-8.284-6.716-15-15-15z" fill="#0182fc"/></g><g><circle cx="430.5" cy="26.5" fill="#fff" r="7.5"/></g><g><path d="m111 0h-48c-8.284 0-15 6.716-15 15v41h48v-41c0-8.284 6.716-15 15-15z" fill="#0172fb"/></g><g><g><circle cx="80.5" cy="26.5" fill="#fd4755" r="7.5"/></g><g><circle cx="102.5" cy="26.5" fill="#fee45a" r="7.5"/></g><g><circle cx="124.5" cy="26.5" fill="#68ca44" r="7.5"/></g></g></g></g><g><g><path d="m158.498 302.901c-3.601 4.044-5.793 9.371-5.793 15.212 0 12.64 10.247 22.886 22.886 22.886s22.886-10.247 22.886-22.886c0-5.841-2.192-11.168-5.793-15.212z" fill="#cfcae4"/><path d="m173.227 318.114c0-5.375 1.864-10.308 4.967-14.212h-20.534c-3.099 3.905-4.955 8.84-4.955 14.212 0 12.64 10.247 22.886 22.886 22.886 3.691 0 7.174-.879 10.261-2.43-7.485-3.763-12.625-11.507-12.625-20.456z" fill="#b5add5"/><path d="m233.612 302.901c-3.601 4.044-5.793 9.371-5.793 15.212 0 12.64 10.247 22.886 22.886 22.886s22.886-10.247 22.886-22.886c0-5.841-2.192-11.168-5.793-15.212z" fill="#cfcae4"/><path d="m248.227 318.114c0-5.375 1.864-10.308 4.967-14.212h-20.42c-3.099 3.905-4.955 8.84-4.955 14.212 0 12.64 10.247 22.886 22.886 22.886 3.668 0 7.131-.867 10.204-2.401-7.516-3.752-12.682-11.513-12.682-20.485z" fill="#b5add5"/><g><path d="m277.324 303.901h-128.406c-4.142 0-7.5-3.357-7.5-7.5s3.358-7.5 7.5-7.5h123.068l42.944-123.845c1.046-3.019 3.891-5.043 7.086-5.043h36.08c4.142 0 7.5 3.357 7.5 7.5s-3.358 7.5-7.5 7.5h-30.742l-42.944 123.845c-1.047 3.019-3.891 5.043-7.086 5.043z" fill="#9182b0"/></g><path d="m285.298 183.73h-20.831c-10.653 23.15-34.054 39.27-61.163 39.27s-50.51-16.12-61.164-39.27h-22.267c-4.035 0-6.866 3.978-5.544 7.791l27.742 80.005c.819 2.362 3.044 3.946 5.544 3.946h109.941c2.5 0 4.725-1.584 5.544-3.946l27.742-80.005c1.323-3.813-1.508-7.791-5.544-7.791z" fill="#b3dafe"/><path d="m173.9 271.526-26.625-76.784c-2.41-3.452-4.505-7.135-6.253-11.013h-21.148c-4.035 0-6.866 3.978-5.544 7.791l27.742 80.005c.819 2.362 3.044 3.946 5.544 3.946h31.829c-2.501 0-4.726-1.583-5.545-3.945z" fill="#8ac9fe"/></g><g><g><path d="m398 237.002h-58.683c-4.142 0-7.5-3.357-7.5-7.5s3.358-7.5 7.5-7.5h58.683c4.142 0 7.5 3.357 7.5 7.5s-3.358 7.5-7.5 7.5z" fill="#b5add5"/></g><g><path d="m398 268.691h-58.683c-4.142 0-7.5-3.357-7.5-7.5s3.358-7.5 7.5-7.5h58.683c4.142 0 7.5 3.357 7.5 7.5s-3.358 7.5-7.5 7.5z" fill="#b5add5"/></g><g><path d="m398 300.38h-58.683c-4.142 0-7.5-3.357-7.5-7.5s3.358-7.5 7.5-7.5h58.683c4.142 0 7.5 3.357 7.5 7.5s-3.358 7.5-7.5 7.5z" fill="#b5add5"/></g><g><path d="m398 332.068h-58.683c-4.142 0-7.5-3.357-7.5-7.5s3.358-7.5 7.5-7.5h58.683c4.142 0 7.5 3.357 7.5 7.5s-3.358 7.5-7.5 7.5z" fill="#b5add5"/></g></g></g><g><g><circle cx="203.304" cy="155.696" fill="#fe646f" r="68.304"/></g><path d="m177 155.696c0-30.394 19.858-56.139 47.304-65-6.618-2.137-13.671-3.304-21-3.304-37.723 0-68.304 30.581-68.304 68.304s30.581 68.304 68.304 68.304c7.329 0 14.382-1.167 21-3.304-27.446-8.861-47.304-34.605-47.304-65z" fill="#fd4755"/><path d="m213.911 155.696 18.551-18.551c2.929-2.93 2.929-7.678 0-10.607-2.929-2.928-7.678-2.928-10.606 0l-18.551 18.551-18.551-18.551c-2.929-2.928-7.678-2.928-10.606 0-2.929 2.93-2.929 7.678 0 10.607l18.551 18.551-18.551 18.551c-2.929 2.93-2.929 7.678 0 10.607 1.464 1.464 3.384 2.196 5.303 2.196s3.839-.732 5.303-2.196l18.551-18.551 18.551 18.551c1.464 1.464 3.384 2.196 5.303 2.196s3.839-.732 5.303-2.196c2.929-2.93 2.929-7.678 0-10.607z" fill="#fff"/></g><g><g><g><path d="m342.474 421.75h-172.948c-14.083 0-25.5-11.417-25.5-25.5 0-14.083 11.417-25.5 25.5-25.5h172.948c14.083 0 25.5 11.417 25.5 25.5 0 14.083-11.417 25.5-25.5 25.5z" fill="#fe646f"/></g></g><g><path d="m197.175 403.75h-13.175c-4.142 0-7.5-3.357-7.5-7.5s3.358-7.5 7.5-7.5h13.175c3.203-10.423 12.904-18 24.377-18h-52.026c-14.083 0-25.5 11.417-25.5 25.5s11.417 25.5 25.5 25.5h52.026c-11.473 0-21.174-7.577-24.377-18z" fill="#fd4755"/></g><g><g><path d="m328 403.75h-144c-4.142 0-7.5-3.357-7.5-7.5s3.358-7.5 7.5-7.5h144c4.143 0 7.5 3.357 7.5 7.5s-3.357 7.5-7.5 7.5z" fill="#fff"/></g></g></g></g></svg>