<svg id="Capa_1" enable-background="new 0 0 512 512" height="512" viewBox="0 0 512 512" width="512" xmlns="http://www.w3.org/2000/svg"><g><g><g><path d="m501.698 37.091h-491.396c-5.69 0-10.302 4.613-10.302 10.302v49.372l2.337 1.03h508.117l1.545-1.03v-49.372c.001-5.689-4.611-10.302-10.301-10.302z" fill="#fd4755"/></g><path d="m62.326 47.393c0-5.69 4.612-10.302 10.302-10.302h-62.326c-5.69 0-10.302 4.613-10.302 10.302v49.372h62.326z" fill="#fb2b3a"/><g><g><path d="m501.698 474.909h-491.396c-5.69 0-10.302-4.613-10.302-10.302v-367.842h512v367.842c0 5.689-4.612 10.302-10.302 10.302z" fill="#e8edf2"/></g></g><g><path d="m62.326 464.607v-367.842h-62.326v367.842c0 5.69 4.612 10.302 10.302 10.302h62.326c-5.69 0-10.302-4.613-10.302-10.302z" fill="#d9e7ec"/></g><g><g><circle cx="30.66" cy="66.402" fill="#fe646f" r="7.5"/></g><g><circle cx="56.66" cy="66.402" fill="#fac600" r="7.5"/></g><g><circle cx="82.66" cy="66.402" fill="#00c27a" r="7.5"/></g></g><g><g><g><path d="m106.624 165.633h-61.811c-4.142 0-7.5-3.357-7.5-7.5s3.358-7.5 7.5-7.5h61.811c4.142 0 7.5 3.357 7.5 7.5s-3.358 7.5-7.5 7.5z" fill="#00c27a"/></g></g><g><g><path d="m106.624 191.388h-61.811c-4.142 0-7.5-3.357-7.5-7.5s3.358-7.5 7.5-7.5h61.811c4.142 0 7.5 3.357 7.5 7.5s-3.358 7.5-7.5 7.5z" fill="#00c27a"/></g></g><g><g><path d="m106.624 217.142h-61.811c-4.142 0-7.5-3.357-7.5-7.5s3.358-7.5 7.5-7.5h61.811c4.142 0 7.5 3.357 7.5 7.5s-3.358 7.5-7.5 7.5z" fill="#7a8c98"/></g></g><g><g><path d="m106.624 268.651h-61.811c-4.142 0-7.5-3.357-7.5-7.5s3.358-7.5 7.5-7.5h61.811c4.142 0 7.5 3.357 7.5 7.5s-3.358 7.5-7.5 7.5z" fill="#00c27a"/></g></g><g><g><path d="m106.624 294.405h-61.811c-4.142 0-7.5-3.357-7.5-7.5s3.358-7.5 7.5-7.5h61.811c4.142 0 7.5 3.357 7.5 7.5s-3.358 7.5-7.5 7.5z" fill="#00c27a"/></g></g><g><g><path d="m106.624 320.16h-61.811c-4.142 0-7.5-3.357-7.5-7.5s3.358-7.5 7.5-7.5h61.811c4.142 0 7.5 3.357 7.5 7.5s-3.358 7.5-7.5 7.5z" fill="#8d9ca8"/></g></g><g><g><path d="m106.624 345.914h-61.811c-4.142 0-7.5-3.357-7.5-7.5s3.358-7.5 7.5-7.5h61.811c4.142 0 7.5 3.357 7.5 7.5s-3.358 7.5-7.5 7.5z" fill="#8d9ca8"/></g></g></g></g><g><path d="m443.493 442.973h-374.986c-13.086 0-23.694-10.608-23.694-23.694 0-13.086 10.608-23.694 23.694-23.694h374.986c13.086 0 23.694 10.608 23.694 23.694 0 13.086-10.608 23.694-23.694 23.694z" fill="#99e6fc"/></g><g><path d="m112.805 419.279c0-13.086 10.608-23.694 23.694-23.694h-67.992c-13.086 0-23.694 10.608-23.694 23.694 0 13.086 10.608 23.694 23.694 23.694h67.992c-13.086 0-23.694-10.608-23.694-23.694z" fill="#62dbfb"/></g><g><g><path d="m443.493 450.473h-374.986c-17.2 0-31.194-13.993-31.194-31.193s13.994-31.194 31.194-31.194h374.986c17.2 0 31.194 13.994 31.194 31.194s-13.994 31.193-31.194 31.193zm-374.986-47.388c-8.929 0-16.194 7.265-16.194 16.194s7.265 16.193 16.194 16.193h374.986c8.929 0 16.194-7.265 16.194-16.193 0-8.93-7.265-16.194-16.194-16.194z" fill="#b6c4cf"/></g></g><g><g><path d="m338.093 256.927v-21.098c0-2.436-1.975-4.411-4.411-4.411h-15.365c-1.929 0-3.613-1.261-4.206-3.097-.978-3.029-2.197-5.949-3.631-8.741-.883-1.719-.586-3.806.781-5.173l10.872-10.872c1.723-1.723 1.723-4.515 0-6.238l-14.918-14.919c-1.723-1.723-4.516-1.723-6.238 0l-10.872 10.872c-1.367 1.367-3.453 1.664-5.173.781-2.792-1.434-5.712-2.653-8.74-3.631-1.836-.593-3.097-2.277-3.097-4.206v-15.364c0-2.436-1.975-4.411-4.411-4.411h-21.098c-2.436 0-4.411 1.975-4.411 4.411v15.364c0 1.929-1.261 3.613-3.097 4.206-3.029.978-5.949 2.197-8.74 3.631-1.719.883-3.806.586-5.173-.781l-10.872-10.872c-1.723-1.723-4.516-1.723-6.238 0l-14.918 14.919c-1.723 1.723-1.723 4.516 0 6.238l10.872 10.872c1.367 1.367 1.664 3.453.781 5.173-1.434 2.792-2.653 5.712-3.631 8.741-.593 1.836-2.277 3.097-4.206 3.097h-15.365c-2.436 0-4.411 1.975-4.411 4.411v21.098c0 2.436 1.975 4.411 4.411 4.411h15.365c1.929 0 3.613 1.261 4.206 3.097.978 3.029 2.197 5.949 3.631 8.74.883 1.719.586 3.806-.781 5.173l-10.872 10.872c-1.723 1.723-1.723 4.515 0 6.238l14.918 14.919c1.723 1.723 4.516 1.723 6.238 0l10.872-10.872c1.367-1.367 3.453-1.664 5.173-.781 2.792 1.434 5.712 2.653 8.74 3.631 1.836.593 3.097 2.277 3.097 4.206v15.365c0 2.436 1.975 4.411 4.411 4.411h21.098c2.436 0 4.411-1.975 4.411-4.411v-15.365c0-1.929 1.261-3.613 3.097-4.206 3.029-.978 5.949-2.197 8.74-3.631 1.719-.883 3.806-.586 5.173.781l10.872 10.872c1.723 1.723 4.516 1.723 6.238 0l14.918-14.919c1.723-1.723 1.723-4.516 0-6.238l-10.872-10.872c-1.367-1.367-1.664-3.453-.781-5.173 1.434-2.792 2.653-5.712 3.631-8.74.593-1.836 2.277-3.097 4.206-3.097h15.365c2.436 0 4.411-1.975 4.411-4.411z" fill="#8d9ca8"/></g><path d="m237.317 283.055c-12.752-7.267-21.375-20.979-21.375-36.677s8.623-29.409 21.374-36.676c7.916-14.873 20.486-26.893 35.777-34.102v-4.77c0-2.436-1.975-4.411-4.411-4.411h-21.098c-2.436 0-4.411 1.975-4.411 4.411v15.364c0 1.929-1.261 3.613-3.097 4.206-3.029.978-5.949 2.197-8.74 3.631-1.719.883-3.806.586-5.173-.781l-10.872-10.872c-1.723-1.723-4.516-1.723-6.238 0l-14.918 14.919c-1.723 1.723-1.723 4.516 0 6.238l10.872 10.872c1.367 1.367 1.664 3.453.781 5.173-1.434 2.792-2.653 5.712-3.631 8.741-.593 1.836-2.277 3.097-4.206 3.097h-15.365c-2.436 0-4.411 1.975-4.411 4.411v21.098c0 2.436 1.975 4.411 4.411 4.411h15.365c1.929 0 3.613 1.261 4.206 3.097.978 3.029 2.197 5.949 3.631 8.74.883 1.719.586 3.806-.781 5.173l-10.872 10.872c-1.723 1.723-1.723 4.516 0 6.238l14.918 14.919c1.723 1.723 4.515 1.723 6.238 0l10.872-10.872c1.367-1.367 3.453-1.664 5.173-.781 2.792 1.434 5.712 2.653 8.74 3.631 1.836.593 3.097 2.277 3.097 4.206v15.365c0 2.436 1.975 4.411 4.411 4.411h21.098c2.436 0 4.411-1.975 4.411-4.411v-4.77c-15.289-7.209-27.859-19.229-35.776-34.101z" fill="#7a8c98"/><g><circle cx="258.134" cy="246.378" fill="#596c76" r="34.692"/></g><path d="m253.618 257.19c-4.228-1.768-7.2-5.942-7.2-10.812s2.972-9.043 7.2-10.812c3.05-9.291 9.903-16.856 18.735-20.831-4.34-1.953-9.15-3.049-14.218-3.049-19.16 0-34.692 15.532-34.692 34.692s15.532 34.692 34.692 34.692c5.068 0 9.878-1.096 14.218-3.049-8.832-3.975-15.685-11.54-18.735-20.831z" fill="#465a61"/><g><path d="m258.134 288.57c-23.265 0-42.191-18.928-42.191-42.192s18.927-42.191 42.191-42.191 42.192 18.927 42.192 42.191-18.927 42.192-42.192 42.192zm0-69.383c-14.993 0-27.191 12.198-27.191 27.191 0 14.994 12.198 27.192 27.191 27.192 14.994 0 27.192-12.198 27.192-27.192 0-14.993-12.198-27.191-27.192-27.191z" fill="#b6c4cf"/></g><g><circle cx="258.134" cy="246.378" fill="#e8edf2" r="11.716"/></g></g><g><path d="m346.656 426.779h-277.119c-4.142 0-7.5-3.357-7.5-7.5s3.358-7.5 7.5-7.5h277.119c4.142 0 7.5 3.357 7.5 7.5s-3.358 7.5-7.5 7.5z" fill="#08a9f1"/></g><g><g><g fill="#b6c4cf"><path d="m354.336 297.935c-3.908 7.29-8.655 14.164-14.196 20.466-17.344 19.729-41.151 32.548-67.035 36.097-4.104.563-6.974 4.346-6.412 8.449.516 3.759 3.731 6.482 7.421 6.482.339 0 .683-.023 1.028-.07 29.454-4.039 56.538-18.618 76.263-41.054 4.926-5.603 9.303-11.602 13.103-17.914z"/><path d="m273.105 138.259c25.884 3.549 49.691 16.368 67.035 36.097 13.109 14.911 21.806 33.004 25.346 52.299.232-.107.488-.172.76-.172h14.43c-3.712-22.898-13.784-44.417-29.271-62.032-19.725-22.436-46.809-37.015-76.263-41.054-4.101-.554-7.887 2.308-8.45 6.412-.561 4.104 2.309 7.887 6.413 8.45z"/></g><g><path d="m242.154 369.43c-.339 0-.683-.023-1.028-.07-29.454-4.039-56.538-18.618-76.262-41.054-19.91-22.646-30.875-51.741-30.875-81.928 0-30.186 10.965-59.281 30.875-81.927 19.725-22.436 46.808-37.015 76.262-41.054 4.113-.555 7.887 2.309 8.45 6.412.563 4.104-2.308 7.887-6.412 8.449-25.884 3.549-49.69 16.368-67.035 36.097-17.501 19.906-27.14 45.484-27.14 72.022 0 26.539 9.639 52.117 27.14 72.023 17.345 19.729 41.151 32.548 67.035 36.097 4.104.563 6.974 4.346 6.412 8.449-.516 3.76-3.732 6.484-7.422 6.484z" fill="#b6c4cf"/></g></g></g><g><path d="m345.32 288.475 34.661 42.445c1.129 1.383 3.242 1.383 4.372 0l34.661-42.445c1.505-1.843.194-4.607-2.186-4.607h-13.096c-1.559 0-2.822-1.263-2.822-2.822v-52.74c0-1.559-1.263-2.822-2.822-2.822h-31.841c-1.559 0-2.822 1.263-2.822 2.822v52.74c0 1.559-1.263 2.822-2.822 2.822h-13.096c-2.381 0-3.692 2.764-2.187 4.607z" fill="#00c27a"/></g><g><g><path d="m354.402 299.597h21.796c1.559 0 2.822-1.264 2.822-2.822v-52.74c0-1.559 1.263-2.822 2.822-2.822h19.067v-12.907c0-1.559-1.263-2.822-2.822-2.822h-31.841c-1.559 0-2.822 1.263-2.822 2.822v52.74c0 1.559-1.264 2.822-2.822 2.822h-13.096c-2.38 0-3.691 2.764-2.186 4.607z" fill="#08b865"/></g></g><g><g><path d="m442.576 130.828h-28.041c-1.269 0-2.485.504-3.382 1.401l-19.828 19.828c-.897.897-1.401 2.114-1.401 3.382v28.041c0 1.269.504 2.485 1.401 3.382l19.828 19.828c.897.897 2.114 1.401 3.382 1.401h28.041c1.269 0 2.485-.504 3.382-1.401l19.828-19.828c.897-.897 1.401-2.114 1.401-3.382v-28.041c0-1.269-.504-2.485-1.401-3.382l-19.828-19.828c-.897-.897-2.114-1.401-3.382-1.401z" fill="#b6c4cf"/></g><path d="m422.23 186.863c-.897-.897-1.401-2.114-1.401-3.382v-.012c-4.931-2.726-8.274-7.975-8.274-14.008s3.342-11.282 8.274-14.008v-.012c0-1.268.504-2.485 1.401-3.382l19.828-19.828c.549-.549 1.224-.929 1.95-1.158-.461-.146-.939-.243-1.432-.243h-28.041c-1.269 0-2.485.504-3.382 1.401l-19.828 19.828c-.897.897-1.401 2.114-1.401 3.382v28.041c0 1.268.504 2.485 1.401 3.382l19.828 19.828c.897.897 2.114 1.401 3.382 1.401h28.041c.493 0 .971-.097 1.432-.243-.726-.229-1.401-.609-1.95-1.158z" fill="#9facba"/><g><circle cx="428.555" cy="169.46" fill="#596c76" r="16"/></g><path d="m425 169.46c0-6.63 4.032-12.317 9.778-14.745-1.913-.808-4.015-1.255-6.222-1.255-8.837 0-16 7.163-16 16s7.163 16 16 16c2.207 0 4.31-.447 6.222-1.255-5.746-2.428-9.778-8.116-9.778-14.745z" fill="#465a61"/></g></g></svg>