<svg id="Capa_1" enable-background="new 0 0 512 512" height="512" viewBox="0 0 512 512" width="512" xmlns="http://www.w3.org/2000/svg"><g><path d="m256 22c-135.31 0-245 109.69-245 245s109.69 245 245 245c26.536 0 52.079-4.236 76.01-12.039l1-.743v-119.975c0-1.892 1.539-3.43 3.43-3.43h116.063c1.892 0 3.43 1.538 3.43 3.43v28.691l1-.743c27.766-39.722 44.067-88.05 44.067-140.191 0-135.31-109.69-245-245-245z" fill="#b3dafe"/><g><g><g><g><path d="m159.091 0h193.818c13.054 0 23.636 10.582 23.636 23.636v425.727c0 13.054-10.582 23.636-23.636 23.636h-193.818c-13.054 0-23.636-10.582-23.636-23.636v-425.727c0-13.054 10.582-23.636 23.636-23.636z" fill="#cfcae4"/><g fill="#b5add5"><path d="m177 449.364v-51.197h-41.545v51.197c0 13.054 10.582 23.636 23.636 23.636h41.545c-13.054 0-23.636-10.583-23.636-23.636z"/><path d="m177 52.408v-28.772c0-13.054 10.582-23.636 23.636-23.636h-41.545c-13.054 0-23.636 10.582-23.636 23.636v28.771h41.545z"/></g><path d="m135.455 52.408h241.091v345.76h-241.091z" fill="#fff" transform="matrix(-1 0 0 -1 512 450.575)"/><path d="m135.455 52.408h41.545v345.76h-41.545z" fill="#f3f0ff"/><path d="m325.06 224.351c0-9.142 6.864-16.747 15.625-17.314.375-.024.747-.036 1.116-.036.69 0 1.367.055 2.036.136v-73.117c0-3.016-2.445-5.461-5.461-5.461h-164.752c-3.016 0-5.461 2.445-5.461 5.461v120.61l2.925 1h30.537c6.012-24.442 28.104-42.63 54.375-42.63s48.363 18.188 54.375 42.63h14.685z" fill="#fe646f"/></g><g><path d="m274.459 435.681h-36.918c-4.142 0-7.5-3.357-7.5-7.5s3.358-7.5 7.5-7.5h36.918c4.142 0 7.5 3.357 7.5 7.5s-3.358 7.5-7.5 7.5z" fill="#9182b0"/></g></g></g></g><g><path d="m199.326 134.02c0-3.016 2.445-5.461 5.461-5.461h-31.163c-3.016 0-5.461 2.445-5.461 5.461v120.61h31.163z" fill="#fd4755"/><g fill="#fb2b3a"><path d="m200 269c0-4.967.658-9.782 1.877-14.37h-33.714v30.168c0 3.016 2.445 5.461 5.461 5.461h30.579c-2.702-6.56-4.203-13.736-4.203-21.259z"/><path d="m325.06 290.259v-35.629h-14.937c1.219 4.589 1.877 9.403 1.877 14.37 0 7.523-1.501 14.699-4.203 21.259z"/></g><g><path d="m290.258 161.581c-4.142 0-7.5-3.357-7.5-7.5v-42.822c0-14.755-12.004-26.759-26.758-26.759s-26.758 12.004-26.758 26.759v42.822c0 4.143-3.358 7.5-7.5 7.5s-7.5-3.357-7.5-7.5v-42.822c0-23.026 18.733-41.759 41.758-41.759s41.758 18.732 41.758 41.759v42.822c0 4.143-3.358 7.5-7.5 7.5z" fill="#fb2b3a"/></g></g><g><g><circle cx="256" cy="269" fill="#4fc123" r="57"/></g><g><path d="m239 269c0-24.441 15.387-45.282 37-53.383-6.224-2.333-12.961-3.617-20-3.617-31.48 0-57 25.52-57 57s25.52 57 57 57c7.039 0 13.776-1.284 20-3.617-21.613-8.101-37-28.942-37-53.383z" fill="#47a920"/></g><g><path d="m252.839 296.784c-1.989 0-3.897-.79-5.303-2.196l-24.023-24.023c-2.929-2.93-2.929-7.678 0-10.607 2.929-2.928 7.678-2.928 10.606 0l18.72 18.721 28.366-28.367c2.929-2.928 7.678-2.928 10.606 0 2.929 2.93 2.929 7.678 0 10.607l-33.669 33.67c-1.406 1.405-3.313 2.195-5.303 2.195z" fill="#fff"/></g></g><g><path d="m288.369 35.554h-64.738c-4.142 0-7.5-3.357-7.5-7.5s3.358-7.5 7.5-7.5h64.738c4.142 0 7.5 3.357 7.5 7.5s-3.358 7.5-7.5 7.5z" fill="#9182b0"/></g><g><path d="m449.439 266.205c-10.334-.669-18.924 7.514-18.924 17.704 0-9.799-7.944-17.743-17.742-17.743-9.799 0-17.743 7.944-17.743 17.743 0-9.799-7.944-17.743-17.743-17.743-9.798 0-17.742 7.943-17.742 17.741v-60.166c0-10.19-8.59-18.373-18.924-17.704-9.43.611-16.561 8.862-16.561 18.312v119.11c0 12.079 9.792 21.871 21.871 21.871h.184v10.483h96.714v-10.483h1.301c12.079 0 21.871-9.792 21.871-21.871v-58.943c-.001-9.449-7.132-17.7-16.562-18.311z" fill="#fed2a4"/><path d="m346.114 365.331v9.483h21v-14.975c0-2.423-1.745-4.465-4.125-4.917-10.143-1.927-17.93-10.813-17.93-21.483v-119.11c0-2.691.595-5.276 1.64-7.623-2.494-.716-5.2-.93-8.021-.432-8.55 1.508-14.619 9.216-14.619 17.898v119.29c0 12.079 9.792 21.871 21.871 21.871h.184z" fill="#ffbd86"/><path d="m456.933 407.191v-27.948c0-2.447-1.983-4.43-4.43-4.43h-116.063c-2.447 0-4.43 1.983-4.43 4.43v120.718c51.073-16.653 94.766-49.627 124.923-92.77z" fill="#0182fc"/><path d="m332.01 379.243v120.718c14.652-4.778 28.698-10.893 41.99-18.213v-102.505c0-2.447 1.983-4.43 4.43-4.43h-41.99c-2.447 0-4.43 1.984-4.43 4.43z" fill="#0172fb"/></g><circle cx="198.5" cy="28.054" fill="#fff" r="7.5"/><g><circle cx="234" cy="363.5" fill="#cfcae4" r="7.5"/><circle cx="256" cy="363.5" fill="#4fc123" r="7.5"/><circle cx="278" cy="363.5" fill="#cfcae4" r="7.5"/></g></g></svg>