<svg id="Camada_1" data-name="Camada 1" xmlns="http://www.w3.org/2000/svg" viewBox="0 0 143.2 69.57"><defs><style>.cls-1{fill:red;}</style></defs><title>mbway</title><path class="cls-1" d="M7.07,61.84l-.24,1.87a1.55,1.55,0,0,0,1.36,1.73H69.29a1.56,1.56,0,0,0,1.57-1.74l-.25-1.87A2.68,2.68,0,0,1,73,58.9a2.64,2.64,0,0,1,2.9,2.34v0l.23,1.82c.47,4.08-1.83,7.65-6,7.65H7.51c-4.12,0-6.43-3.57-6-7.65l.24-1.82A2.64,2.64,0,0,1,4.68,58.9h0a2.69,2.69,0,0,1,2.38,2.95" transform="translate(-1.5 -1.16)"/><path d="M63.37,47.71A5,5,0,0,0,68.63,43q0-.13,0-.26c-.06-2.91-2.71-4.79-5.66-4.79H57a2.48,2.48,0,0,1,0-5h4c2.69-.11,4.76-1.74,4.89-4.27.13-2.72-2.21-4.77-5.07-4.77H51.15l0,23.77H63.37m7.33-19a7.87,7.87,0,0,1-2.33,5.62l-.15.17.2.12a9.73,9.73,0,0,1,5,8.14,10,10,0,0,1-9.79,10.13h-15a2.62,2.62,0,0,1-2.59-2.66h0V21.66A2.62,2.62,0,0,1,48.68,19h0l12.15,0a9.6,9.6,0,0,1,9.87,9.32q0,.17,0,.33" transform="translate(-1.5 -1.16)"/><path d="M23.26,43.08l.07.2.07-.2c.68-1.88,1.51-4,2.38-6.23s1.79-4.67,2.69-6.85,1.76-4.18,2.58-5.9a19.73,19.73,0,0,1,2-3.62A4,4,0,0,1,36.26,19h.61a2.89,2.89,0,0,1,1.92.61A2.17,2.17,0,0,1,39.55,21l3.8,29.5a2.43,2.43,0,0,1-.65,1.79,2.61,2.61,0,0,1-1.85.61,3,3,0,0,1-1.91-.57,2,2,0,0,1-.89-1.47c-.13-1-.24-2.07-.37-3.27s-.76-6.34-.93-7.64-1.22-9.67-1.59-12.7l0-.26-1.22,2.56c-.42.88-.86,1.93-1.36,3.16s-1,2.53-1.47,3.91-2.88,8.06-2.88,8.06c-.22.61-.64,1.84-1,3s-.73,2.15-.83,2.34a3.42,3.42,0,0,1-6.09,0c-.1-.19-.44-1.21-.83-2.34s-.78-2.36-1-3c0,0-2.35-6.74-2.88-8.06s-1-2.67-1.48-3.91-.94-2.28-1.34-3.16L11.53,27l0,.26c-.37,3-1.43,11.36-1.6,12.7S9.14,46.36,9,47.55s-.25,2.28-.37,3.27a2.06,2.06,0,0,1-.89,1.47,3,3,0,0,1-1.92.57A2.59,2.59,0,0,1,4,52.26a2.46,2.46,0,0,1-.65-1.79L7.11,21a2.18,2.18,0,0,1,.77-1.32A2.88,2.88,0,0,1,9.8,19h.61a3.93,3.93,0,0,1,3.19,1.45,19.36,19.36,0,0,1,2,3.62q1.23,2.58,2.58,5.9t2.7,6.85c.87,2.27,1.7,4.35,2.37,6.23" transform="translate(-1.5 -1.16)"/><path class="cls-1" d="M15.8,1.16H62.06c4.36,0,6.53,3.27,7,7.58l.19,1.38a2.7,2.7,0,0,1-2.39,3A2.66,2.66,0,0,1,64,10.71v0L63.8,9.38c-.19-1.64-.88-2.9-2.55-2.9H16.62c-1.67,0-2.36,1.26-2.56,2.9l-.18,1.32A2.66,2.66,0,0,1,11,13.1h0a2.7,2.7,0,0,1-2.39-3l.19-1.38c.52-4.31,2.68-7.58,7-7.58" transform="translate(-1.5 -1.16)"/><path d="M99,32.26c-.32,1.23-.65,2.56-1,4s-.69,2.75-1,4-.65,2.39-1,3.36a11.21,11.21,0,0,1-.76,2,2,2,0,0,1-1.89.94,3.91,3.91,0,0,1-1-.15,1.67,1.67,0,0,1-1-.86,12.1,12.1,0,0,1-.76-2.08c-.3-1-.62-2.22-1-3.57s-.67-2.77-1-4.28-.64-2.9-.91-4.2S87.23,29,87,28.09s-.28-1.46-.3-1.64a1.74,1.74,0,0,1,0-.23v-.13a1.13,1.13,0,0,1,.44-.93,1.63,1.63,0,0,1,1.08-.35,1.73,1.73,0,0,1,1,.26,1.44,1.44,0,0,1,.53.89s.06.37.18,1,.29,1.38.48,2.32.41,2,.64,3.17.48,2.35.75,3.56.52,2.35.78,3.48.49,2.09.72,2.9c.22-.76.47-1.63.74-2.61s.54-2,.81-3,.53-2.09.77-3.13.48-2,.7-2.92.4-1.69.55-2.39.28-1.21.37-1.55a1.85,1.85,0,0,1,.64-1A1.8,1.8,0,0,1,99,25.35a1.88,1.88,0,0,1,1.22.39,1.78,1.78,0,0,1,.6,1c.26,1.09.53,2.33.82,3.69s.6,2.72.91,4.12.65,2.76,1,4.1.67,2.52,1,3.55c.22-.8.47-1.77.73-2.89s.52-2.28.78-3.48.54-2.36.78-3.53l.68-3.15c.2-.93.37-1.69.48-2.27s.19-.89.19-.91a1.43,1.43,0,0,1,.54-.89,1.71,1.71,0,0,1,1-.26,1.65,1.65,0,0,1,1.08.35,1.13,1.13,0,0,1,.44.93v.13a1.5,1.5,0,0,1,0,.23c0,.18-.13.72-.33,1.64s-.42,2-.69,3.29-.58,2.69-.92,4.18-.67,2.91-1,4.26-.64,2.54-.95,3.56a11.7,11.7,0,0,1-.76,2.07,1.8,1.8,0,0,1-1,.9,3.67,3.67,0,0,1-1,.18,2.72,2.72,0,0,1-.41,0,3.39,3.39,0,0,1-.58-.13A2.11,2.11,0,0,1,103,46a1.51,1.51,0,0,1-.48-.59,14.94,14.94,0,0,1-.72-2.12q-.43-1.48-.91-3.35c-.32-1.25-.65-2.55-1-3.91s-.61-2.63-.88-3.81" transform="translate(-1.5 -1.16)"/><path d="M116.69,40.3q-.51,1.62-.9,3c-.26.92-.5,1.68-.73,2.26a1.51,1.51,0,0,1-3-.4,1.3,1.3,0,0,1,.07-.44l.42-1.38c.23-.78.55-1.76.93-2.93s.81-2.45,1.27-3.83.94-2.77,1.43-4.13,1-2.63,1.46-3.81A23.93,23.93,0,0,1,119,25.78a1.56,1.56,0,0,1,.73-.78,3.25,3.25,0,0,1,1.24-.2,3.21,3.21,0,0,1,1.27.23,1.37,1.37,0,0,1,.72.81c.32.67.7,1.58,1.13,2.71s.9,2.36,1.38,3.67,1,2.66,1.44,4,.91,2.65,1.3,3.83l1,3c.28.83.46,1.37.52,1.61a1.41,1.41,0,0,1,.07.44,1.3,1.3,0,0,1-.41,1,1.61,1.61,0,0,1-1.18.39,1.28,1.28,0,0,1-.87-.25,1.72,1.72,0,0,1-.45-.72c-.22-.58-.49-1.34-.8-2.26s-.62-1.91-1-3h-8.45m7.5-2.93c-.48-1.46-.93-2.8-1.36-4S122,31,121.52,29.86c-.11-.25-.23-.53-.35-.87s-.2-.51-.22-.57a2.52,2.52,0,0,0-.22.54c-.13.35-.25.65-.36.9-.45,1.1-.89,2.26-1.31,3.49s-.86,2.56-1.33,4Z" transform="translate(-1.5 -1.16)"/><path d="M135.65,38a3.31,3.31,0,0,1-.32-.37c-.1-.13-.21-.3-.33-.47-.32-.45-.65-1-1-1.63s-.75-1.32-1.12-2-.73-1.45-1.07-2.18-.67-1.41-.95-2-.53-1.18-.73-1.63a6.85,6.85,0,0,1-.37-1,2,2,0,0,1-.08-.25c0-.06,0-.14,0-.25a1.35,1.35,0,0,1,.42-1,1.61,1.61,0,0,1,1.17-.41,1.21,1.21,0,0,1,1,.34,2.29,2.29,0,0,1,.42.68l.33.73.62,1.41c.25.56.53,1.18.84,1.85s.64,1.34,1,2l.94,1.87a14,14,0,0,0,.86,1.47,24,24,0,0,0,1.38-2.47q.74-1.48,1.42-2.92c.45-1,.84-1.82,1.17-2.56l.59-1.38a2.29,2.29,0,0,1,.42-.68,1.17,1.17,0,0,1,1-.34,1.59,1.59,0,0,1,1.17.41,1.32,1.32,0,0,1,.42,1,1.53,1.53,0,0,1,0,.25c0,.06,0,.14-.08.25l-.39,1c-.19.47-.43,1-.72,1.65s-.59,1.31-.94,2-.72,1.45-1.08,2.18-.74,1.4-1.12,2.05-.72,1.21-1,1.65a5.33,5.33,0,0,1-.65.77v7a1.48,1.48,0,0,1-.42,1.1,1.52,1.52,0,0,1-2.62-1.1V38" transform="translate(-1.5 -1.16)"/></svg>